<?xml version="1.0" encoding="UTF-8" standalone="no"?>
<!-- Created with Inkscape (http://www.inkscape.org/) -->

<svg
   width="321.41718"
   height="323.1347"
   viewBox="0 0 85.041626 85.49606"
   version="1.1"
   id="svg5"
   inkscape:version="1.1.1 (c3084ef, 2021-09-22)"
   sodipodi:docname="logo.svg"
   inkscape:export-filename="/Users/Kirthmas/Desktop/favicon.ico"
   inkscape:export-xdpi="19.200001"
   inkscape:export-ydpi="19.200001"
   xmlns:inkscape="http://www.inkscape.org/namespaces/inkscape"
   xmlns:sodipodi="http://sodipodi.sourceforge.net/DTD/sodipodi-0.dtd"
   xmlns="http://www.w3.org/2000/svg"
   xmlns:svg="http://www.w3.org/2000/svg">
  <sodipodi:namedview
     id="namedview7"
     pagecolor="#505050"
     bordercolor="#eeeeee"
     borderopacity="1"
     inkscape:pageshadow="0"
     inkscape:pageopacity="0"
     inkscape:pagecheckerboard="0"
     inkscape:document-units="mm"
     showgrid="false"
     units="px"
     inkscape:snap-page="true"
     inkscape:snap-bbox="true"
     inkscape:snap-bbox-midpoints="false"
     inkscape:object-nodes="true"
     inkscape:snap-nodes="false"
     inkscape:snap-midpoints="false"
     inkscape:snap-smooth-nodes="true"
     inkscape:bbox-paths="true"
     inkscape:bbox-nodes="false"
     inkscape:snap-bbox-edge-midpoints="false"
     inkscape:object-paths="true"
     inkscape:zoom="0.70710678"
     inkscape:cx="102.53048"
     inkscape:cy="190.21172"
     inkscape:window-width="1280"
     inkscape:window-height="675"
     inkscape:window-x="0"
     inkscape:window-y="25"
     inkscape:window-maximized="0"
     inkscape:current-layer="layer1"
     showguides="false"
     inkscape:guide-bbox="true"
     inkscape:snap-grids="false"
     inkscape:snap-intersection-paths="true">
    <sodipodi:guide
       position="38.079081,77.992635"
       orientation="1,0"
       id="guide5400" />
    <sodipodi:guide
       position="45.280306,78.267432"
       orientation="1,0"
       id="guide6776" />
  </sodipodi:namedview>
  <defs
     id="defs2">
    <inkscape:path-effect
       effect="spiro"
       id="path-effect2455"
       is_visible="true"
       lpeversion="1" />
    <inkscape:path-effect
       effect="spiro"
       id="path-effect1832"
       is_visible="true"
       lpeversion="1" />
    <inkscape:path-effect
       effect="spiro"
       id="path-effect1828"
       is_visible="true"
       lpeversion="1" />
    <inkscape:path-effect
       effect="spiro"
       id="path-effect1347"
       is_visible="true"
       lpeversion="1" />
    <inkscape:path-effect
       effect="spiro"
       id="path-effect1343"
       is_visible="true"
       lpeversion="1" />
    <inkscape:path-effect
       effect="spiro"
       id="path-effect1044"
       is_visible="true"
       lpeversion="1" />
    <inkscape:path-effect
       effect="spiro"
       id="path-effect905"
       is_visible="true"
       lpeversion="1" />
  </defs>
  <g
     inkscape:label="Layer 1"
     inkscape:groupmode="layer"
     id="layer1"
     transform="translate(-0.40330204,0.83478743)">
    <path
       id="path4727"
       style="color:#000000;fill:#000000;stroke-width:3.77953;stroke-linecap:round;stroke-linejoin:round;-inkscape-stroke:none;paint-order:stroke markers fill"
       d="m 145.4707,-1.3378906 -0.0254,26.5429686 c 0.002,0.408857 0.002,0.817706 0.004,1.226563 0.63184,-0.106313 1.26214,-0.216261 1.89648,-0.314453 1.04587,-0.161895 2.09604,-0.313484 3.14844,-0.453126 1.0524,-0.139641 2.1074,-0.267603 3.16602,-0.384765 1.05861,-0.117162 2.11907,-0.223905 3.18359,-0.318359 1.06452,-0.09445 2.13301,-0.176526 3.20313,-0.248047 1.07011,-0.07152 2.14336,-0.131327 3.21874,-0.179688 1.07539,-0.04836 2.15208,-0.08636 3.23243,-0.111328 1.08034,-0.02497 2.16306,-0.0377 3.24804,-0.03906 0.96999,-0.0012 1.94256,0.0095 2.91602,0.02734 -2.6e-4,-0.08138 2.6e-4,-0.162761 0,-0.24414 5.32868,0.0013 10.65764,0.0026 15.98633,0.0039 0.0888,-0.0219 0.17731,-0.04469 0.26562,-0.06836 0.96116,-0.364263 1.87836,-0.835313 2.73438,-1.404296 0.85601,-0.56869 1.64546,-1.231697 2.35351,-1.976563 0.70763,-0.745116 1.32936,-1.567323 1.85352,-2.451172 0.52416,-0.884072 0.94738,-1.824207 1.26172,-2.802734 0.31466,-0.978648 0.51841,-1.989542 0.60742,-3.013672 0.031,-0.357921 0.0479,-0.716922 0.0508,-1.076172 0.003,-0.359671 -0.008,-0.719324 -0.0332,-1.078125 -0.0256,-0.3588448 -0.0654,-0.7165427 -0.11914,-1.0722655 -0.0532,-0.3553612 -0.12029,-0.7084977 -0.20117,-1.0585937 -0.0808,-0.3499251 -0.17525,-0.6965459 -0.28321,-1.0390626 -0.10838,-0.3431981 -0.23022,-0.6820015 -0.36523,-1.015625 -0.13487,-0.3331512 -0.28277,-0.6608776 -0.44336,-0.9824218 -0.16073,-0.3217883 -0.33404,-0.6371358 -0.51953,-0.9453125 -0.18541,-0.3077585 -0.38283,-0.60812 -0.5918,-0.9003907 -0.20878,-0.2930462 -0.42901,-0.5777713 -0.66016,-0.8535156 -0.23166,-0.2750378 -0.47403,-0.5408678 -0.72656,-0.796875 -0.25195,-0.2562754 -0.51387,-0.5025589 -0.78515,-0.73828122 -0.27167,-0.2355462 -0.55248,-0.4603289 -0.8418,-0.67382813 -0.28881,-0.21405634 -0.58592,-0.41668647 -0.89063,-0.60742187 -0.30475,-0.18990049 -0.61684,-0.36777165 -0.93554,-0.53320313 -0.31938,-0.16573325 -0.64516,-0.31884625 -0.97657,-0.45898435 -0.33082,-0.1400906 -0.66702,-0.2671416 -1.00781,-0.3808594 -0.34095,-0.1144309 -0.68627,-0.2154203 -1.03515,-0.3027344 -0.34921,-0.086736 -0.7017,-0.1597085 -1.05665,-0.21875 -0.35422,-0.058876 -0.71061,-0.1038323 -1.06835,-0.1347656 -1.30134,-0.112782 -2.60249,-0.2112554 -3.9004,-0.2949219 -1.2979,-0.083666 -2.59262,-0.1522219 -3.88671,-0.2070312 -1.2941,-0.054809 -2.58706,-0.094883 -3.87696,-0.1210938 -1.2899,-0.026211 -2.57797,-0.039239 -3.86328,-0.037109 -1.28531,0.00213 -2.56732,0.018617 -3.84765,0.048828 -1.28034,0.030211 -2.55901,0.074778 -3.83399,0.1328125 -1.27497,0.058035 -2.54718,0.1292444 -3.81641,0.2148437 -1.26922,0.085599 -2.53574,0.1859225 -3.79882,0.2988282 -1.26309,0.1129056 -2.52274,0.2389527 -3.7793,0.3789062 -1.25656,0.1399535 -2.50816,0.2941946 -3.75781,0.4609375 -0.46874,0.062544 -0.93462,0.134884 -1.40235,0.2011719 z"
       transform="scale(0.26458333)"
       sodipodi:nodetypes="cccsssssssscccccccccccccccscccccccccccccssssssssssc" />
    <path
       id="path8269"
       style="color:#000000;fill:#000000;stroke-width:3.77953;stroke-linecap:round;stroke-linejoin:round;-inkscape-stroke:none;paint-order:stroke markers fill"
       d="m 172.66016,293.01172 c -0.0919,0.002 -0.18347,0.006 -0.27539,0.008 -1.04638,0.0169 -2.09424,0.023 -3.14258,0.0176 -1.04834,-0.005 -2.09851,-0.021 -3.14844,-0.0488 -1.04993,-0.0279 -2.09924,-0.0667 -3.15039,-0.11719 -1.05115,-0.0504 -2.1023,-0.11239 -3.1543,-0.18554 -1.05199,-0.0732 -2.10573,-0.1579 -3.1582,-0.25391 -1.05247,-0.096 -2.10368,-0.20326 -3.15625,-0.32226 -1.05257,-0.11901 -2.10591,-0.25045 -3.1582,-0.39258 -1.0523,-0.14213 -2.10461,-0.29555 -3.15625,-0.46094 -0.57365,-0.0902 -1.14734,-0.1919 -1.72071,-0.28906 0.003,1.23584 0.002,2.4711 0.006,3.70703 -1.0176,29.4353 28.63539,30.96993 27.2168,0.29297 -0.002,-0.65173 -7e-5,-1.30335 -0.002,-1.95508 z"
       transform="scale(0.26458333)"
       sodipodi:nodetypes="cssssssssscccc" />
    <path
       id="path8267"
       style="color:#000000;fill:#eb6969;stroke-width:3.77953;stroke-linecap:round;stroke-linejoin:round;-inkscape-stroke:none;paint-order:stroke markers fill;fill-opacity:1"
       d="m 227.74609,-3.0800781 c -7.74043,-0.069206 -15.25735,-0.022107 -23.22461,0.068359 -12.269,-0.090462 -18.41165,-0.2578916 -30.95119,-0.025391 -1.2899,-0.02621 -2.57797,-0.039239 -3.86328,-0.037109 -1.28531,0.00213 -2.56733,0.018617 -3.84765,0.048828 -1.28034,0.030211 -2.55901,0.074779 -3.83399,0.1328125 -1.27497,0.058035 -2.54718,0.1292447 -3.81641,0.2148437 -1.26922,0.085599 -2.53574,0.1859225 -3.79882,0.2988282 -1.26309,0.1129055 -2.52274,0.2389527 -3.7793,0.3789062 -1.25656,0.1399535 -2.50816,0.2941946 -3.75781,0.4609375 -0.46874,0.062544 -0.93462,0.1348839 -1.40235,0.2011719 C 78.602771,8.1389571 22.159526,55.799748 6.0390625,121.73438 -13.200311,200.42572 30.502577,283.26978 109.47266,309.66211 c 20.21645,6.75647 40.51132,10.1167 60.23636,10.30877 60.9635,0.59365 116.48397,-29.07554 147.42379,-82.27361 3.8165,-6.55189 1.59889,-14.95714 -4.95312,-18.77344 -6.55197,-3.81484 -14.95592,-1.59647 -18.77149,4.95508 -24.99488,42.89412 -71.66931,68.24711 -120.74804,69.13281 -0.11476,-39.75152 0.12878,-79.50238 0.002,-119.25391 22.12377,-0.17412 44.74723,0.22587 66.85742,-0.63086 30.96541,-2.52762 60.59397,-21.36685 74.32422,-49.50976 11.43476,-22.66923 12.26029,-50.501193 1.51172,-73.587893 C 303.71075,23.941168 278.78474,4.5372537 250.81445,-0.95117188 243.2005,-2.5753625 235.48653,-3.0108724 227.74609,-3.0800781 Z m 4.88088,27.2598001 c 22.3989,0.389775 44.79345,12.509474 55.60157,32.4375 5.55846,9.929796 8.38476,21.885682 7.39062,32.992187 -1.32037,16.589731 -10.22424,33.753611 -24.34375,42.988281 -12.40717,8.23078 -27.1544,12.36194 -41.86133,13.76953 -18.78832,0.0983 -37.96348,0.0375 -56.75195,0.0469 -0.12866,-40.66803 0.12716,-81.33585 0,-122.0039 19.72791,-0.787876 40.48437,-0.235362 59.96484,-0.230498 z m -87.17773,2.251919 c 0.0868,22.004758 0.17493,44.008914 0.26172,66.013671 0.21727,66.215008 -0.45139,132.310858 -0.27149,198.521488 -8.88684,-1.50603 -17.73576,-3.83936 -26.43554,-7.0586 C 53.147328,259.53889 16.80158,193.3171 32.708984,128.25391 45.73155,74.990051 90.868362,35.615228 145.44922,26.431641 Z"
       transform="scale(0.26458333)"
       sodipodi:nodetypes="sccssssssscssscccccccccscccsscccscccsss" />
  </g>
</svg>
